<mxfile host="app.diagrams.net" agent="Mozilla/5.0 (X11; Ubuntu; Linux x86_64; rv:129.0) Gecko/20100101 Firefox/129.0" version="24.7.8">
  <diagram name="Page-1" id="IBJaXp7eG0eNU7H1QXlM">
    <mxGraphModel dx="2273" dy="1325" grid="1" gridSize="10" guides="1" tooltips="1" connect="1" arrows="1" fold="1" page="1" pageScale="1" pageWidth="2336" pageHeight="1654" math="0" shadow="0">
      <root>
        <mxCell id="0" />
        <mxCell id="1" parent="0" />
        <mxCell id="FERdAZXW9QyfhdKveveX-4" style="edgeStyle=orthogonalEdgeStyle;rounded=0;orthogonalLoop=1;jettySize=auto;html=1;exitX=0.5;exitY=1;exitDx=0;exitDy=0;entryX=0.5;entryY=0;entryDx=0;entryDy=0;fontSize=15;" edge="1" parent="1" source="FERdAZXW9QyfhdKveveX-1" target="FERdAZXW9QyfhdKveveX-3">
          <mxGeometry relative="1" as="geometry" />
        </mxCell>
        <mxCell id="FERdAZXW9QyfhdKveveX-1" value="ROOT" style="ellipse;whiteSpace=wrap;html=1;fontSize=15;container=0;" vertex="1" parent="1">
          <mxGeometry x="1031.8435754189945" y="20" width="126.81564245810056" height="53.333333333333336" as="geometry" />
        </mxCell>
        <mxCell id="FERdAZXW9QyfhdKveveX-8" style="edgeStyle=orthogonalEdgeStyle;rounded=0;orthogonalLoop=1;jettySize=auto;html=1;exitX=0.5;exitY=1;exitDx=0;exitDy=0;fontSize=15;" edge="1" parent="1" source="FERdAZXW9QyfhdKveveX-3" target="FERdAZXW9QyfhdKveveX-5">
          <mxGeometry relative="1" as="geometry" />
        </mxCell>
        <mxCell id="FERdAZXW9QyfhdKveveX-12" style="edgeStyle=orthogonalEdgeStyle;rounded=0;orthogonalLoop=1;jettySize=auto;html=1;exitX=0.5;exitY=1;exitDx=0;exitDy=0;entryX=0.5;entryY=0;entryDx=0;entryDy=0;fontSize=15;" edge="1" parent="1" source="FERdAZXW9QyfhdKveveX-3" target="FERdAZXW9QyfhdKveveX-9">
          <mxGeometry relative="1" as="geometry" />
        </mxCell>
        <mxCell id="FERdAZXW9QyfhdKveveX-55" style="edgeStyle=orthogonalEdgeStyle;rounded=0;orthogonalLoop=1;jettySize=auto;html=1;exitX=0.5;exitY=1;exitDx=0;exitDy=0;entryX=0.5;entryY=0;entryDx=0;entryDy=0;fontSize=15;" edge="1" parent="1" source="FERdAZXW9QyfhdKveveX-3" target="FERdAZXW9QyfhdKveveX-54">
          <mxGeometry relative="1" as="geometry" />
        </mxCell>
        <mxCell id="FERdAZXW9QyfhdKveveX-100" style="edgeStyle=orthogonalEdgeStyle;rounded=0;orthogonalLoop=1;jettySize=auto;html=1;exitX=0.5;exitY=1;exitDx=0;exitDy=0;entryX=0.5;entryY=0;entryDx=0;entryDy=0;fontSize=15;" edge="1" parent="1" source="FERdAZXW9QyfhdKveveX-3" target="FERdAZXW9QyfhdKveveX-57">
          <mxGeometry relative="1" as="geometry" />
        </mxCell>
        <mxCell id="FERdAZXW9QyfhdKveveX-101" style="edgeStyle=orthogonalEdgeStyle;rounded=0;orthogonalLoop=1;jettySize=auto;html=1;exitX=0.5;exitY=1;exitDx=0;exitDy=0;entryX=0.5;entryY=0;entryDx=0;entryDy=0;fontSize=15;" edge="1" parent="1" source="FERdAZXW9QyfhdKveveX-3" target="FERdAZXW9QyfhdKveveX-99">
          <mxGeometry relative="1" as="geometry" />
        </mxCell>
        <mxCell id="FERdAZXW9QyfhdKveveX-3" value="&lt;div&gt;SEQUENCE&lt;/div&gt;main_sequence" style="rounded=0;whiteSpace=wrap;html=1;fontSize=15;container=0;fillColor=#cce5ff;strokeColor=#36393d;" vertex="1" parent="1">
          <mxGeometry x="1031.8435754189945" y="113.33333333333333" width="126.81564245810056" height="66.66666666666666" as="geometry" />
        </mxCell>
        <mxCell id="FERdAZXW9QyfhdKveveX-7" style="edgeStyle=orthogonalEdgeStyle;rounded=0;orthogonalLoop=1;jettySize=auto;html=1;exitX=0.5;exitY=1;exitDx=0;exitDy=0;entryX=0.5;entryY=0;entryDx=0;entryDy=0;fontSize=15;" edge="1" parent="1" source="FERdAZXW9QyfhdKveveX-5" target="FERdAZXW9QyfhdKveveX-6">
          <mxGeometry relative="1" as="geometry" />
        </mxCell>
        <mxCell id="FERdAZXW9QyfhdKveveX-5" value="&lt;div style=&quot;font-size: 15px;&quot;&gt;RETRY&lt;/div&gt;&lt;div style=&quot;font-size: 15px;&quot;&gt;UNTIL&lt;/div&gt;&lt;div style=&quot;font-size: 15px;&quot;&gt;SUCCESSFUL&lt;/div&gt;&lt;div style=&quot;font-size: 15px;&quot;&gt;&lt;br style=&quot;font-size: 15px;&quot;&gt;&lt;/div&gt;" style="rhombus;whiteSpace=wrap;html=1;fontSize=15;container=0;fillColor=#f5f5f5;fontColor=#333333;strokeColor=#666666;" vertex="1" parent="1">
          <mxGeometry x="131.45251396648044" y="233.33333333333334" width="152.17877094972067" height="133.33333333333331" as="geometry" />
        </mxCell>
        <mxCell id="FERdAZXW9QyfhdKveveX-6" value="&lt;div style=&quot;font-size: 15px;&quot;&gt;ACTION&lt;/div&gt;&lt;div style=&quot;font-size: 15px;&quot;&gt;EnsureDetectionSuccessful&lt;br style=&quot;font-size: 15px;&quot;&gt;&lt;/div&gt;" style="rounded=0;whiteSpace=wrap;html=1;fontSize=15;container=0;fillColor=#d5e8d4;strokeColor=#82b366;" vertex="1" parent="1">
          <mxGeometry x="106.08938547486034" y="406.66666666666663" width="202.90502793296088" height="66.66666666666666" as="geometry" />
        </mxCell>
        <mxCell id="FERdAZXW9QyfhdKveveX-11" style="edgeStyle=orthogonalEdgeStyle;rounded=0;orthogonalLoop=1;jettySize=auto;html=1;exitX=0.5;exitY=1;exitDx=0;exitDy=0;entryX=0.5;entryY=0;entryDx=0;entryDy=0;fontSize=15;" edge="1" parent="1" source="FERdAZXW9QyfhdKveveX-9" target="FERdAZXW9QyfhdKveveX-10">
          <mxGeometry relative="1" as="geometry" />
        </mxCell>
        <mxCell id="FERdAZXW9QyfhdKveveX-9" value="&lt;div style=&quot;font-size: 15px;&quot;&gt;RETRY&lt;/div&gt;&lt;div style=&quot;font-size: 15px;&quot;&gt;UNTIL&lt;/div&gt;&lt;div style=&quot;font-size: 15px;&quot;&gt;SUCCESSFUL&lt;/div&gt;&lt;div style=&quot;font-size: 15px;&quot;&gt;&lt;br style=&quot;font-size: 15px;&quot;&gt;&lt;/div&gt;" style="rhombus;whiteSpace=wrap;html=1;fontSize=15;container=0;fillColor=#f5f5f5;fontColor=#333333;strokeColor=#666666;" vertex="1" parent="1">
          <mxGeometry x="461.17318435754186" y="233.33333333333334" width="152.17877094972067" height="133.33333333333331" as="geometry" />
        </mxCell>
        <mxCell id="FERdAZXW9QyfhdKveveX-43" style="edgeStyle=orthogonalEdgeStyle;rounded=0;orthogonalLoop=1;jettySize=auto;html=1;exitX=0.5;exitY=1;exitDx=0;exitDy=0;entryX=0.5;entryY=0;entryDx=0;entryDy=0;fontSize=15;" edge="1" parent="1" source="FERdAZXW9QyfhdKveveX-10" target="FERdAZXW9QyfhdKveveX-13">
          <mxGeometry relative="1" as="geometry" />
        </mxCell>
        <mxCell id="FERdAZXW9QyfhdKveveX-44" style="edgeStyle=orthogonalEdgeStyle;rounded=0;orthogonalLoop=1;jettySize=auto;html=1;exitX=0.5;exitY=1;exitDx=0;exitDy=0;entryX=0.5;entryY=0;entryDx=0;entryDy=0;fontSize=15;" edge="1" parent="1" source="FERdAZXW9QyfhdKveveX-10" target="FERdAZXW9QyfhdKveveX-23">
          <mxGeometry relative="1" as="geometry">
            <Array as="points">
              <mxPoint x="537.2625698324023" y="526.6666666666667" />
              <mxPoint x="600.6703910614525" y="526.6666666666667" />
            </Array>
          </mxGeometry>
        </mxCell>
        <mxCell id="FERdAZXW9QyfhdKveveX-52" style="edgeStyle=orthogonalEdgeStyle;rounded=0;orthogonalLoop=1;jettySize=auto;html=1;exitX=0.5;exitY=1;exitDx=0;exitDy=0;entryX=0.5;entryY=0;entryDx=0;entryDy=0;fontSize=15;" edge="1" parent="1" source="FERdAZXW9QyfhdKveveX-10" target="FERdAZXW9QyfhdKveveX-49">
          <mxGeometry relative="1" as="geometry" />
        </mxCell>
        <mxCell id="FERdAZXW9QyfhdKveveX-53" style="edgeStyle=orthogonalEdgeStyle;rounded=0;orthogonalLoop=1;jettySize=auto;html=1;exitX=0.5;exitY=1;exitDx=0;exitDy=0;entryX=0.5;entryY=0;entryDx=0;entryDy=0;fontSize=15;" edge="1" parent="1" source="FERdAZXW9QyfhdKveveX-10" target="FERdAZXW9QyfhdKveveX-50">
          <mxGeometry relative="1" as="geometry" />
        </mxCell>
        <mxCell id="FERdAZXW9QyfhdKveveX-10" value="&lt;div&gt;SEQUENCE&lt;/div&gt;center_robot_to_can" style="rounded=0;whiteSpace=wrap;html=1;fontSize=15;container=0;fillColor=#cce5ff;strokeColor=#36393d;" vertex="1" parent="1">
          <mxGeometry x="468" y="406.67" width="138" height="66.67" as="geometry" />
        </mxCell>
        <mxCell id="FERdAZXW9QyfhdKveveX-22" value="" style="swimlane;startSize=0;fontSize=15;container=0;" vertex="1" parent="1">
          <mxGeometry x="30" y="553.3333333333333" width="355.08379888268155" height="600" as="geometry">
            <mxRectangle x="120" y="440" width="50" height="40" as="alternateBounds" />
          </mxGeometry>
        </mxCell>
        <mxCell id="FERdAZXW9QyfhdKveveX-42" value="" style="swimlane;startSize=0;fontSize=15;container=0;" vertex="1" parent="1">
          <mxGeometry x="30" y="1206.6666666666665" width="1103.2960893854747" height="413.3333333333333" as="geometry" />
        </mxCell>
        <mxCell id="FERdAZXW9QyfhdKveveX-49" value="&lt;div style=&quot;font-size: 15px;&quot;&gt;CONDITION&lt;/div&gt;&lt;div style=&quot;font-size: 15px;&quot;&gt;CorrectDistance&lt;br style=&quot;font-size: 15px;&quot;&gt;&lt;/div&gt;" style="rounded=0;whiteSpace=wrap;html=1;fontSize=15;container=0;fillColor=#fff2cc;strokeColor=#d6b656;" vertex="1" parent="1">
          <mxGeometry x="689.4413407821229" y="580" width="126.81564245810056" height="66.66666666666666" as="geometry" />
        </mxCell>
        <mxCell id="FERdAZXW9QyfhdKveveX-50" value="&lt;div style=&quot;font-size: 15px;&quot;&gt;ACTION&lt;/div&gt;&lt;div style=&quot;font-size: 15px;&quot;&gt;Halt&lt;br style=&quot;font-size: 15px;&quot;&gt;&lt;/div&gt;" style="rounded=0;whiteSpace=wrap;html=1;fontSize=15;container=0;fillColor=#d5e8d4;strokeColor=#82b366;" vertex="1" parent="1">
          <mxGeometry x="841.6201117318435" y="580" width="126.81564245810056" height="66.66666666666666" as="geometry" />
        </mxCell>
        <mxCell id="FERdAZXW9QyfhdKveveX-54" value="&lt;div style=&quot;font-size: 15px;&quot;&gt;ACTION&lt;/div&gt;&lt;div style=&quot;font-size: 15px;&quot;&gt;CloseGripper&lt;br style=&quot;font-size: 15px;&quot;&gt;&lt;/div&gt;" style="rounded=0;whiteSpace=wrap;html=1;fontSize=15;container=0;fillColor=#d5e8d4;strokeColor=#82b366;" vertex="1" parent="1">
          <mxGeometry x="841.6201117318435" y="233.33333333333334" width="126.81564245810056" height="66.66666666666666" as="geometry" />
        </mxCell>
        <mxCell id="FERdAZXW9QyfhdKveveX-56" style="edgeStyle=orthogonalEdgeStyle;rounded=0;orthogonalLoop=1;jettySize=auto;html=1;exitX=0.5;exitY=1;exitDx=0;exitDy=0;entryX=0.5;entryY=0;entryDx=0;entryDy=0;fontSize=15;" edge="1" parent="1" source="FERdAZXW9QyfhdKveveX-57" target="FERdAZXW9QyfhdKveveX-62">
          <mxGeometry relative="1" as="geometry" />
        </mxCell>
        <mxCell id="FERdAZXW9QyfhdKveveX-57" value="&lt;div style=&quot;font-size: 15px;&quot;&gt;RETRY&lt;/div&gt;&lt;div style=&quot;font-size: 15px;&quot;&gt;UNTIL&lt;/div&gt;&lt;div style=&quot;font-size: 15px;&quot;&gt;SUCCESSFUL&lt;/div&gt;&lt;div style=&quot;font-size: 15px;&quot;&gt;&lt;br style=&quot;font-size: 15px;&quot;&gt;&lt;/div&gt;" style="rhombus;whiteSpace=wrap;html=1;fontSize=15;container=0;fillColor=#f5f5f5;fontColor=#333333;strokeColor=#666666;" vertex="1" parent="1">
          <mxGeometry x="1627.877094972067" y="233.33333333333334" width="152.17877094972067" height="133.33333333333331" as="geometry" />
        </mxCell>
        <mxCell id="FERdAZXW9QyfhdKveveX-58" style="edgeStyle=orthogonalEdgeStyle;rounded=0;orthogonalLoop=1;jettySize=auto;html=1;exitX=0.5;exitY=1;exitDx=0;exitDy=0;entryX=0.5;entryY=0;entryDx=0;entryDy=0;fontSize=15;" edge="1" parent="1" source="FERdAZXW9QyfhdKveveX-62" target="FERdAZXW9QyfhdKveveX-65">
          <mxGeometry relative="1" as="geometry" />
        </mxCell>
        <mxCell id="FERdAZXW9QyfhdKveveX-59" style="edgeStyle=orthogonalEdgeStyle;rounded=0;orthogonalLoop=1;jettySize=auto;html=1;exitX=0.5;exitY=1;exitDx=0;exitDy=0;entryX=0.5;entryY=0;entryDx=0;entryDy=0;fontSize=15;" edge="1" parent="1" source="FERdAZXW9QyfhdKveveX-62" target="FERdAZXW9QyfhdKveveX-78">
          <mxGeometry relative="1" as="geometry">
            <Array as="points">
              <mxPoint x="1703.9664804469273" y="526.6666666666667" />
              <mxPoint x="1767.3743016759777" y="526.6666666666667" />
            </Array>
          </mxGeometry>
        </mxCell>
        <mxCell id="FERdAZXW9QyfhdKveveX-60" style="edgeStyle=orthogonalEdgeStyle;rounded=0;orthogonalLoop=1;jettySize=auto;html=1;exitX=0.5;exitY=1;exitDx=0;exitDy=0;entryX=0.5;entryY=0;entryDx=0;entryDy=0;fontSize=15;" edge="1" parent="1" source="FERdAZXW9QyfhdKveveX-62" target="FERdAZXW9QyfhdKveveX-97">
          <mxGeometry relative="1" as="geometry" />
        </mxCell>
        <mxCell id="FERdAZXW9QyfhdKveveX-61" style="edgeStyle=orthogonalEdgeStyle;rounded=0;orthogonalLoop=1;jettySize=auto;html=1;exitX=0.5;exitY=1;exitDx=0;exitDy=0;entryX=0.5;entryY=0;entryDx=0;entryDy=0;fontSize=15;" edge="1" parent="1" source="FERdAZXW9QyfhdKveveX-62" target="FERdAZXW9QyfhdKveveX-98">
          <mxGeometry relative="1" as="geometry" />
        </mxCell>
        <mxCell id="FERdAZXW9QyfhdKveveX-62" value="&lt;div&gt;SEQUENCE&lt;/div&gt;center_robot_to_qr" style="rounded=0;whiteSpace=wrap;html=1;fontSize=15;container=0;fillColor=#cce5ff;strokeColor=#36393d;" vertex="1" parent="1">
          <mxGeometry x="1640.558659217877" y="406.66666666666663" width="126.81564245810056" height="66.66666666666666" as="geometry" />
        </mxCell>
        <mxCell id="FERdAZXW9QyfhdKveveX-63" value="" style="swimlane;startSize=0;fontSize=15;container=0;" vertex="1" parent="1">
          <mxGeometry x="1196.703910614525" y="553.3333333333333" width="355.08379888268155" height="600" as="geometry">
            <mxRectangle x="120" y="440" width="50" height="40" as="alternateBounds" />
          </mxGeometry>
        </mxCell>
        <mxCell id="FERdAZXW9QyfhdKveveX-73" value="" style="swimlane;startSize=0;fontSize=15;container=0;" vertex="1" parent="1">
          <mxGeometry x="1196.703910614525" y="1206.6666666666665" width="1103.2960893854747" height="413.3333333333333" as="geometry" />
        </mxCell>
        <mxCell id="FERdAZXW9QyfhdKveveX-97" value="&lt;div style=&quot;font-size: 15px;&quot;&gt;CONDITION&lt;/div&gt;&lt;div style=&quot;font-size: 15px;&quot;&gt;ReachedBlackLine&lt;br style=&quot;font-size: 15px;&quot;&gt;&lt;/div&gt;" style="rounded=0;whiteSpace=wrap;html=1;fontSize=15;container=0;fillColor=#fff2cc;strokeColor=#d6b656;" vertex="1" parent="1">
          <mxGeometry x="1856.145251396648" y="580" width="126.81564245810056" height="66.66666666666666" as="geometry" />
        </mxCell>
        <mxCell id="FERdAZXW9QyfhdKveveX-98" value="&lt;div style=&quot;font-size: 15px;&quot;&gt;ACTION&lt;/div&gt;&lt;div style=&quot;font-size: 15px;&quot;&gt;Halt&lt;br style=&quot;font-size: 15px;&quot;&gt;&lt;/div&gt;" style="rounded=0;whiteSpace=wrap;html=1;fontSize=15;container=0;fillColor=#d5e8d4;strokeColor=#82b366;" vertex="1" parent="1">
          <mxGeometry x="2008.3240223463686" y="580" width="126.81564245810056" height="66.66666666666666" as="geometry" />
        </mxCell>
        <mxCell id="FERdAZXW9QyfhdKveveX-99" value="&lt;div style=&quot;font-size: 15px;&quot;&gt;ACTION&lt;/div&gt;&lt;div style=&quot;font-size: 15px;&quot;&gt;OpenGripper&lt;br style=&quot;font-size: 15px;&quot;&gt;&lt;/div&gt;" style="rounded=0;whiteSpace=wrap;html=1;fontSize=15;container=0;fillColor=#d5e8d4;strokeColor=#82b366;" vertex="1" parent="1">
          <mxGeometry x="2008.3240223463686" y="233.33333333333334" width="126.81564245810056" height="66.66666666666666" as="geometry" />
        </mxCell>
        <mxCell id="FERdAZXW9QyfhdKveveX-15" style="edgeStyle=orthogonalEdgeStyle;rounded=0;orthogonalLoop=1;jettySize=auto;html=1;exitX=0.5;exitY=1;exitDx=0;exitDy=0;entryX=0.5;entryY=0;entryDx=0;entryDy=0;fontSize=15;" edge="1" parent="1" source="FERdAZXW9QyfhdKveveX-13" target="FERdAZXW9QyfhdKveveX-14">
          <mxGeometry relative="1" as="geometry" />
        </mxCell>
        <mxCell id="FERdAZXW9QyfhdKveveX-13" value="&lt;div style=&quot;font-size: 15px;&quot;&gt;RETRY&lt;/div&gt;&lt;div style=&quot;font-size: 15px;&quot;&gt;UNTIL&lt;/div&gt;&lt;div style=&quot;font-size: 15px;&quot;&gt;SUCCESSFUL&lt;/div&gt;&lt;div style=&quot;font-size: 15px;&quot;&gt;&lt;br style=&quot;font-size: 15px;&quot;&gt;&lt;/div&gt;" style="rhombus;whiteSpace=wrap;html=1;fontSize=15;container=0;fillColor=#f5f5f5;fontColor=#333333;strokeColor=#666666;" vertex="1" parent="1">
          <mxGeometry x="131.45251396648044" y="579.9999999999999" width="152.17877094972067" height="133.33333333333331" as="geometry" />
        </mxCell>
        <mxCell id="FERdAZXW9QyfhdKveveX-19" style="edgeStyle=orthogonalEdgeStyle;rounded=0;orthogonalLoop=1;jettySize=auto;html=1;exitX=0.5;exitY=1;exitDx=0;exitDy=0;fontSize=15;" edge="1" parent="1" source="FERdAZXW9QyfhdKveveX-14" target="FERdAZXW9QyfhdKveveX-17">
          <mxGeometry relative="1" as="geometry" />
        </mxCell>
        <mxCell id="FERdAZXW9QyfhdKveveX-20" style="edgeStyle=orthogonalEdgeStyle;rounded=0;orthogonalLoop=1;jettySize=auto;html=1;exitX=0.5;exitY=1;exitDx=0;exitDy=0;entryX=0.5;entryY=0;entryDx=0;entryDy=0;fontSize=15;" edge="1" parent="1" source="FERdAZXW9QyfhdKveveX-14" target="FERdAZXW9QyfhdKveveX-16">
          <mxGeometry relative="1" as="geometry" />
        </mxCell>
        <mxCell id="FERdAZXW9QyfhdKveveX-14" value="&lt;div style=&quot;font-size: 15px;&quot;&gt;FALLBACK&lt;/div&gt;search_for_object" style="rounded=0;whiteSpace=wrap;html=1;fontSize=15;container=0;fillColor=#e1d5e7;strokeColor=#9673a6;" vertex="1" parent="1">
          <mxGeometry x="144.1340782122905" y="753.3333333333333" width="126.81564245810056" height="66.66666666666666" as="geometry" />
        </mxCell>
        <mxCell id="FERdAZXW9QyfhdKveveX-16" value="&lt;div style=&quot;font-size: 15px;&quot;&gt;ACTION&lt;/div&gt;&lt;div style=&quot;font-size: 15px;&quot;&gt;FindObject&lt;br style=&quot;font-size: 15px;&quot;&gt;&lt;/div&gt;&lt;div style=&quot;font-size: 15px;&quot;&gt;object_type=&quot;can&quot;&lt;br style=&quot;font-size: 15px;&quot;&gt;&lt;/div&gt;" style="rounded=0;whiteSpace=wrap;html=1;fontSize=15;container=0;fillColor=#d5e8d4;strokeColor=#82b366;" vertex="1" parent="1">
          <mxGeometry x="55.36312849162011" y="893.3333333333333" width="126.81564245810056" height="66.66666666666666" as="geometry" />
        </mxCell>
        <mxCell id="FERdAZXW9QyfhdKveveX-21" style="edgeStyle=orthogonalEdgeStyle;rounded=0;orthogonalLoop=1;jettySize=auto;html=1;exitX=0.5;exitY=1;exitDx=0;exitDy=0;entryX=0.5;entryY=0;entryDx=0;entryDy=0;fontSize=15;" edge="1" parent="1" source="FERdAZXW9QyfhdKveveX-17" target="FERdAZXW9QyfhdKveveX-18">
          <mxGeometry relative="1" as="geometry" />
        </mxCell>
        <mxCell id="FERdAZXW9QyfhdKveveX-17" value="&lt;div style=&quot;font-size: 15px;&quot;&gt;FORCE&lt;/div&gt;&lt;div style=&quot;font-size: 15px;&quot;&gt;FAILURE&lt;br style=&quot;font-size: 15px;&quot;&gt;&lt;/div&gt;" style="rhombus;whiteSpace=wrap;html=1;fontSize=15;container=0;fillColor=#ffcccc;strokeColor=#36393d;" vertex="1" parent="1">
          <mxGeometry x="207.54189944134077" y="893.3333333333333" width="152.17877094972067" height="133.33333333333331" as="geometry" />
        </mxCell>
        <mxCell id="FERdAZXW9QyfhdKveveX-18" value="&lt;div style=&quot;font-size: 15px;&quot;&gt;ACTION&lt;/div&gt;&lt;div style=&quot;font-size: 15px;&quot;&gt;RotateRight&lt;br style=&quot;font-size: 15px;&quot;&gt;&lt;/div&gt;" style="rounded=0;whiteSpace=wrap;html=1;fontSize=15;container=0;fillColor=#d5e8d4;strokeColor=#82b366;" vertex="1" parent="1">
          <mxGeometry x="220.22346368715083" y="1060" width="126.81564245810056" height="66.66666666666666" as="geometry" />
        </mxCell>
        <mxCell id="FERdAZXW9QyfhdKveveX-29" style="edgeStyle=orthogonalEdgeStyle;rounded=0;orthogonalLoop=1;jettySize=auto;html=1;exitX=0.5;exitY=1;exitDx=0;exitDy=0;entryX=0.5;entryY=0;entryDx=0;entryDy=0;fontSize=15;" edge="1" parent="1" source="FERdAZXW9QyfhdKveveX-23" target="FERdAZXW9QyfhdKveveX-24">
          <mxGeometry relative="1" as="geometry" />
        </mxCell>
        <mxCell id="FERdAZXW9QyfhdKveveX-35" style="edgeStyle=orthogonalEdgeStyle;rounded=0;orthogonalLoop=1;jettySize=auto;html=1;exitX=0.5;exitY=1;exitDx=0;exitDy=0;entryX=0.5;entryY=0;entryDx=0;entryDy=0;fontSize=15;" edge="1" parent="1" source="FERdAZXW9QyfhdKveveX-23" target="FERdAZXW9QyfhdKveveX-32">
          <mxGeometry relative="1" as="geometry" />
        </mxCell>
        <mxCell id="FERdAZXW9QyfhdKveveX-41" style="edgeStyle=orthogonalEdgeStyle;rounded=0;orthogonalLoop=1;jettySize=auto;html=1;exitX=0.5;exitY=1;exitDx=0;exitDy=0;entryX=0.5;entryY=0;entryDx=0;entryDy=0;fontSize=15;" edge="1" parent="1" source="FERdAZXW9QyfhdKveveX-23" target="FERdAZXW9QyfhdKveveX-38">
          <mxGeometry relative="1" as="geometry" />
        </mxCell>
        <mxCell id="FERdAZXW9QyfhdKveveX-48" style="edgeStyle=orthogonalEdgeStyle;rounded=0;orthogonalLoop=1;jettySize=auto;html=1;exitX=0.5;exitY=1;exitDx=0;exitDy=0;entryX=0.5;entryY=0;entryDx=0;entryDy=0;fontSize=15;" edge="1" parent="1" source="FERdAZXW9QyfhdKveveX-23" target="FERdAZXW9QyfhdKveveX-45">
          <mxGeometry relative="1" as="geometry" />
        </mxCell>
        <mxCell id="FERdAZXW9QyfhdKveveX-23" value="&lt;div style=&quot;font-size: 15px;&quot;&gt;FALLBACK&lt;/div&gt;center_robot" style="rounded=0;whiteSpace=wrap;html=1;fontSize=15;container=0;fillColor=#e1d5e7;strokeColor=#9673a6;" vertex="1" parent="1">
          <mxGeometry x="537.2625698324023" y="1233.3333333333333" width="126.81564245810056" height="66.66666666666666" as="geometry" />
        </mxCell>
        <mxCell id="FERdAZXW9QyfhdKveveX-27" style="edgeStyle=orthogonalEdgeStyle;rounded=0;orthogonalLoop=1;jettySize=auto;html=1;exitX=0.5;exitY=1;exitDx=0;exitDy=0;entryX=0.5;entryY=0;entryDx=0;entryDy=0;fontSize=15;" edge="1" parent="1" source="FERdAZXW9QyfhdKveveX-24" target="FERdAZXW9QyfhdKveveX-26">
          <mxGeometry relative="1" as="geometry" />
        </mxCell>
        <mxCell id="FERdAZXW9QyfhdKveveX-28" style="edgeStyle=orthogonalEdgeStyle;rounded=0;orthogonalLoop=1;jettySize=auto;html=1;exitX=0.5;exitY=1;exitDx=0;exitDy=0;entryX=0.5;entryY=0;entryDx=0;entryDy=0;fontSize=15;" edge="1" parent="1" source="FERdAZXW9QyfhdKveveX-24" target="FERdAZXW9QyfhdKveveX-25">
          <mxGeometry relative="1" as="geometry" />
        </mxCell>
        <mxCell id="FERdAZXW9QyfhdKveveX-24" value="&lt;div style=&quot;font-size: 15px;&quot;&gt;SEQUENCE&lt;/div&gt;&lt;div style=&quot;font-size: 15px;&quot;&gt;approach_ball&lt;br style=&quot;font-size: 15px;&quot;&gt;&lt;/div&gt;" style="rounded=0;whiteSpace=wrap;html=1;fontSize=15;container=0;fillColor=#cce5ff;strokeColor=#36393d;" vertex="1" parent="1">
          <mxGeometry x="131.45251396648044" y="1366.6666666666665" width="126.81564245810056" height="66.66666666666666" as="geometry" />
        </mxCell>
        <mxCell id="FERdAZXW9QyfhdKveveX-25" value="&lt;div style=&quot;font-size: 15px;&quot;&gt;CONDITION&lt;/div&gt;&lt;div style=&quot;font-size: 15px;&quot;&gt;ObjectAtCenter&lt;br style=&quot;font-size: 15px;&quot;&gt;&lt;/div&gt;" style="rounded=0;whiteSpace=wrap;html=1;fontSize=15;container=0;fillColor=#fff2cc;strokeColor=#d6b656;" vertex="1" parent="1">
          <mxGeometry x="55.36312849162011" y="1499.9999999999998" width="126.81564245810056" height="66.66666666666666" as="geometry" />
        </mxCell>
        <mxCell id="FERdAZXW9QyfhdKveveX-26" value="&lt;div style=&quot;font-size: 15px;&quot;&gt;ACTION&lt;/div&gt;&lt;div style=&quot;font-size: 15px;&quot;&gt;MoveForward&lt;br style=&quot;font-size: 15px;&quot;&gt;&lt;/div&gt;" style="rounded=0;whiteSpace=wrap;html=1;fontSize=15;container=0;fillColor=#d5e8d4;strokeColor=#82b366;" vertex="1" parent="1">
          <mxGeometry x="207.54189944134077" y="1499.9999999999998" width="126.81564245810056" height="66.66666666666666" as="geometry" />
        </mxCell>
        <mxCell id="FERdAZXW9QyfhdKveveX-30" style="edgeStyle=orthogonalEdgeStyle;rounded=0;orthogonalLoop=1;jettySize=auto;html=1;exitX=0.5;exitY=1;exitDx=0;exitDy=0;entryX=0.5;entryY=0;entryDx=0;entryDy=0;fontSize=15;" edge="1" parent="1" source="FERdAZXW9QyfhdKveveX-32" target="FERdAZXW9QyfhdKveveX-34">
          <mxGeometry relative="1" as="geometry" />
        </mxCell>
        <mxCell id="FERdAZXW9QyfhdKveveX-31" style="edgeStyle=orthogonalEdgeStyle;rounded=0;orthogonalLoop=1;jettySize=auto;html=1;exitX=0.5;exitY=1;exitDx=0;exitDy=0;entryX=0.5;entryY=0;entryDx=0;entryDy=0;fontSize=15;" edge="1" parent="1" source="FERdAZXW9QyfhdKveveX-32" target="FERdAZXW9QyfhdKveveX-33">
          <mxGeometry relative="1" as="geometry" />
        </mxCell>
        <mxCell id="FERdAZXW9QyfhdKveveX-32" value="&lt;div style=&quot;font-size: 15px;&quot;&gt;SEQUENCE&lt;/div&gt;rotate_right" style="rounded=0;whiteSpace=wrap;html=1;fontSize=15;container=0;fillColor=#cce5ff;strokeColor=#36393d;" vertex="1" parent="1">
          <mxGeometry x="435.81005586592175" y="1366.6666666666665" width="126.81564245810056" height="66.66666666666666" as="geometry" />
        </mxCell>
        <mxCell id="FERdAZXW9QyfhdKveveX-33" value="&lt;div style=&quot;font-size: 15px;&quot;&gt;CONDITION&lt;/div&gt;&lt;div style=&quot;font-size: 15px;&quot;&gt;ObjectOnRight&lt;/div&gt;" style="rounded=0;whiteSpace=wrap;html=1;fontSize=15;container=0;fillColor=#fff2cc;strokeColor=#d6b656;" vertex="1" parent="1">
          <mxGeometry x="359.72067039106145" y="1499.9999999999998" width="126.81564245810056" height="66.66666666666666" as="geometry" />
        </mxCell>
        <mxCell id="FERdAZXW9QyfhdKveveX-34" value="&lt;div style=&quot;font-size: 15px;&quot;&gt;ACTION&lt;/div&gt;&lt;div style=&quot;font-size: 15px;&quot;&gt;MoveForwardRight&lt;br style=&quot;font-size: 15px;&quot;&gt;&lt;/div&gt;" style="rounded=0;whiteSpace=wrap;html=1;fontSize=15;container=0;fillColor=#d5e8d4;strokeColor=#82b366;" vertex="1" parent="1">
          <mxGeometry x="511.8994413407821" y="1499.9999999999998" width="126.81564245810056" height="66.66666666666666" as="geometry" />
        </mxCell>
        <mxCell id="FERdAZXW9QyfhdKveveX-36" style="edgeStyle=orthogonalEdgeStyle;rounded=0;orthogonalLoop=1;jettySize=auto;html=1;exitX=0.5;exitY=1;exitDx=0;exitDy=0;entryX=0.5;entryY=0;entryDx=0;entryDy=0;fontSize=15;" edge="1" parent="1" source="FERdAZXW9QyfhdKveveX-38" target="FERdAZXW9QyfhdKveveX-40">
          <mxGeometry relative="1" as="geometry" />
        </mxCell>
        <mxCell id="FERdAZXW9QyfhdKveveX-37" style="edgeStyle=orthogonalEdgeStyle;rounded=0;orthogonalLoop=1;jettySize=auto;html=1;exitX=0.5;exitY=1;exitDx=0;exitDy=0;entryX=0.5;entryY=0;entryDx=0;entryDy=0;fontSize=15;" edge="1" parent="1" source="FERdAZXW9QyfhdKveveX-38" target="FERdAZXW9QyfhdKveveX-39">
          <mxGeometry relative="1" as="geometry" />
        </mxCell>
        <mxCell id="FERdAZXW9QyfhdKveveX-38" value="&lt;div style=&quot;font-size: 15px;&quot;&gt;SEQUENCE&lt;/div&gt;rotate_left" style="rounded=0;whiteSpace=wrap;html=1;fontSize=15;container=0;fillColor=#cce5ff;strokeColor=#36393d;" vertex="1" parent="1">
          <mxGeometry x="740.1675977653631" y="1366.6666666666665" width="126.81564245810056" height="66.66666666666666" as="geometry" />
        </mxCell>
        <mxCell id="FERdAZXW9QyfhdKveveX-39" value="&lt;div style=&quot;font-size: 15px;&quot;&gt;CONDITION&lt;/div&gt;&lt;div style=&quot;font-size: 15px;&quot;&gt;ObjectOnLeft&lt;/div&gt;" style="rounded=0;whiteSpace=wrap;html=1;fontSize=15;container=0;fillColor=#fff2cc;strokeColor=#d6b656;" vertex="1" parent="1">
          <mxGeometry x="664.0782122905027" y="1499.9999999999998" width="126.81564245810056" height="66.66666666666666" as="geometry" />
        </mxCell>
        <mxCell id="FERdAZXW9QyfhdKveveX-40" value="&lt;div style=&quot;font-size: 15px;&quot;&gt;ACTION&lt;/div&gt;&lt;div style=&quot;font-size: 15px;&quot;&gt;MoveForwardLeft&lt;/div&gt;" style="rounded=0;whiteSpace=wrap;html=1;fontSize=15;container=0;fillColor=#d5e8d4;strokeColor=#82b366;" vertex="1" parent="1">
          <mxGeometry x="816.2569832402235" y="1499.9999999999998" width="126.81564245810056" height="66.66666666666666" as="geometry" />
        </mxCell>
        <mxCell id="FERdAZXW9QyfhdKveveX-47" style="edgeStyle=orthogonalEdgeStyle;rounded=0;orthogonalLoop=1;jettySize=auto;html=1;exitX=0.5;exitY=1;exitDx=0;exitDy=0;entryX=0.5;entryY=0;entryDx=0;entryDy=0;fontSize=15;" edge="1" parent="1" source="FERdAZXW9QyfhdKveveX-45" target="FERdAZXW9QyfhdKveveX-46">
          <mxGeometry relative="1" as="geometry" />
        </mxCell>
        <mxCell id="FERdAZXW9QyfhdKveveX-45" value="&lt;div style=&quot;font-size: 15px;&quot;&gt;FORCE&lt;/div&gt;&lt;div style=&quot;font-size: 15px;&quot;&gt;FAILURE&lt;br style=&quot;font-size: 15px;&quot;&gt;&lt;/div&gt;" style="rhombus;whiteSpace=wrap;html=1;fontSize=15;container=0;fillColor=#ffcccc;strokeColor=#36393d;" vertex="1" parent="1">
          <mxGeometry x="968.4357541899441" y="1366.6666666666665" width="152.17877094972067" height="133.33333333333331" as="geometry" />
        </mxCell>
        <mxCell id="FERdAZXW9QyfhdKveveX-46" value="&lt;div style=&quot;font-size: 15px;&quot;&gt;ACTION&lt;/div&gt;&lt;div style=&quot;font-size: 15px;&quot;&gt;RotateRight&lt;br style=&quot;font-size: 15px;&quot;&gt;&lt;/div&gt;" style="rounded=0;whiteSpace=wrap;html=1;fontSize=15;container=0;fillColor=#d5e8d4;strokeColor=#82b366;" vertex="1" parent="1">
          <mxGeometry x="981.1173184357541" y="1526.6666666666665" width="126.81564245810056" height="66.66666666666666" as="geometry" />
        </mxCell>
        <mxCell id="FERdAZXW9QyfhdKveveX-64" style="edgeStyle=orthogonalEdgeStyle;rounded=0;orthogonalLoop=1;jettySize=auto;html=1;exitX=0.5;exitY=1;exitDx=0;exitDy=0;entryX=0.5;entryY=0;entryDx=0;entryDy=0;fontSize=15;" edge="1" parent="1" source="FERdAZXW9QyfhdKveveX-65" target="FERdAZXW9QyfhdKveveX-68">
          <mxGeometry relative="1" as="geometry" />
        </mxCell>
        <mxCell id="FERdAZXW9QyfhdKveveX-65" value="&lt;div style=&quot;font-size: 15px;&quot;&gt;RETRY&lt;/div&gt;&lt;div style=&quot;font-size: 15px;&quot;&gt;UNTIL&lt;/div&gt;&lt;div style=&quot;font-size: 15px;&quot;&gt;SUCCESSFUL&lt;/div&gt;&lt;div style=&quot;font-size: 15px;&quot;&gt;&lt;br style=&quot;font-size: 15px;&quot;&gt;&lt;/div&gt;" style="rhombus;whiteSpace=wrap;html=1;fontSize=15;container=0;fillColor=#f5f5f5;fontColor=#333333;strokeColor=#666666;" vertex="1" parent="1">
          <mxGeometry x="1298.1564245810055" y="579.9999999999999" width="152.17877094972067" height="133.33333333333331" as="geometry" />
        </mxCell>
        <mxCell id="FERdAZXW9QyfhdKveveX-66" style="edgeStyle=orthogonalEdgeStyle;rounded=0;orthogonalLoop=1;jettySize=auto;html=1;exitX=0.5;exitY=1;exitDx=0;exitDy=0;fontSize=15;" edge="1" parent="1" source="FERdAZXW9QyfhdKveveX-68" target="FERdAZXW9QyfhdKveveX-71">
          <mxGeometry relative="1" as="geometry" />
        </mxCell>
        <mxCell id="FERdAZXW9QyfhdKveveX-67" style="edgeStyle=orthogonalEdgeStyle;rounded=0;orthogonalLoop=1;jettySize=auto;html=1;exitX=0.5;exitY=1;exitDx=0;exitDy=0;entryX=0.5;entryY=0;entryDx=0;entryDy=0;fontSize=15;" edge="1" parent="1" source="FERdAZXW9QyfhdKveveX-68" target="FERdAZXW9QyfhdKveveX-69">
          <mxGeometry relative="1" as="geometry" />
        </mxCell>
        <mxCell id="FERdAZXW9QyfhdKveveX-68" value="&lt;div style=&quot;font-size: 15px;&quot;&gt;FALLBACK&lt;/div&gt;search_for_object" style="rounded=0;whiteSpace=wrap;html=1;fontSize=15;container=0;fillColor=#e1d5e7;strokeColor=#9673a6;" vertex="1" parent="1">
          <mxGeometry x="1310.8379888268155" y="753.3333333333333" width="126.81564245810056" height="66.66666666666666" as="geometry" />
        </mxCell>
        <mxCell id="FERdAZXW9QyfhdKveveX-69" value="&lt;div style=&quot;font-size: 15px;&quot;&gt;ACTION&lt;/div&gt;&lt;div style=&quot;font-size: 15px;&quot;&gt;FindObject&lt;br style=&quot;font-size: 15px;&quot;&gt;&lt;/div&gt;&lt;div style=&quot;font-size: 15px;&quot;&gt;object_type=&quot;qr&quot;&lt;br style=&quot;font-size: 15px;&quot;&gt;&lt;/div&gt;" style="rounded=0;whiteSpace=wrap;html=1;fontSize=15;container=0;fillColor=#d5e8d4;strokeColor=#82b366;" vertex="1" parent="1">
          <mxGeometry x="1222.067039106145" y="893.3333333333333" width="126.81564245810056" height="66.66666666666666" as="geometry" />
        </mxCell>
        <mxCell id="FERdAZXW9QyfhdKveveX-70" style="edgeStyle=orthogonalEdgeStyle;rounded=0;orthogonalLoop=1;jettySize=auto;html=1;exitX=0.5;exitY=1;exitDx=0;exitDy=0;entryX=0.5;entryY=0;entryDx=0;entryDy=0;fontSize=15;" edge="1" parent="1" source="FERdAZXW9QyfhdKveveX-71" target="FERdAZXW9QyfhdKveveX-72">
          <mxGeometry relative="1" as="geometry" />
        </mxCell>
        <mxCell id="FERdAZXW9QyfhdKveveX-71" value="&lt;div style=&quot;font-size: 15px;&quot;&gt;FORCE&lt;/div&gt;&lt;div style=&quot;font-size: 15px;&quot;&gt;FAILURE&lt;br style=&quot;font-size: 15px;&quot;&gt;&lt;/div&gt;" style="rhombus;whiteSpace=wrap;html=1;fontSize=15;container=0;fillColor=#ffcccc;strokeColor=#36393d;" vertex="1" parent="1">
          <mxGeometry x="1374.2458100558658" y="893.3333333333333" width="152.17877094972067" height="133.33333333333331" as="geometry" />
        </mxCell>
        <mxCell id="FERdAZXW9QyfhdKveveX-72" value="&lt;div style=&quot;font-size: 15px;&quot;&gt;ACTION&lt;/div&gt;&lt;div style=&quot;font-size: 15px;&quot;&gt;RotateRight&lt;br style=&quot;font-size: 15px;&quot;&gt;&lt;/div&gt;" style="rounded=0;whiteSpace=wrap;html=1;fontSize=15;container=0;fillColor=#d5e8d4;strokeColor=#82b366;" vertex="1" parent="1">
          <mxGeometry x="1386.9273743016759" y="1060" width="126.81564245810056" height="66.66666666666666" as="geometry" />
        </mxCell>
        <mxCell id="FERdAZXW9QyfhdKveveX-74" style="edgeStyle=orthogonalEdgeStyle;rounded=0;orthogonalLoop=1;jettySize=auto;html=1;exitX=0.5;exitY=1;exitDx=0;exitDy=0;entryX=0.5;entryY=0;entryDx=0;entryDy=0;fontSize=15;" edge="1" parent="1" source="FERdAZXW9QyfhdKveveX-78" target="FERdAZXW9QyfhdKveveX-81">
          <mxGeometry relative="1" as="geometry" />
        </mxCell>
        <mxCell id="FERdAZXW9QyfhdKveveX-75" style="edgeStyle=orthogonalEdgeStyle;rounded=0;orthogonalLoop=1;jettySize=auto;html=1;exitX=0.5;exitY=1;exitDx=0;exitDy=0;entryX=0.5;entryY=0;entryDx=0;entryDy=0;fontSize=15;" edge="1" parent="1" source="FERdAZXW9QyfhdKveveX-78" target="FERdAZXW9QyfhdKveveX-86">
          <mxGeometry relative="1" as="geometry" />
        </mxCell>
        <mxCell id="FERdAZXW9QyfhdKveveX-76" style="edgeStyle=orthogonalEdgeStyle;rounded=0;orthogonalLoop=1;jettySize=auto;html=1;exitX=0.5;exitY=1;exitDx=0;exitDy=0;entryX=0.5;entryY=0;entryDx=0;entryDy=0;fontSize=15;" edge="1" parent="1" source="FERdAZXW9QyfhdKveveX-78" target="FERdAZXW9QyfhdKveveX-91">
          <mxGeometry relative="1" as="geometry" />
        </mxCell>
        <mxCell id="FERdAZXW9QyfhdKveveX-77" style="edgeStyle=orthogonalEdgeStyle;rounded=0;orthogonalLoop=1;jettySize=auto;html=1;exitX=0.5;exitY=1;exitDx=0;exitDy=0;entryX=0.5;entryY=0;entryDx=0;entryDy=0;fontSize=15;" edge="1" parent="1" source="FERdAZXW9QyfhdKveveX-78" target="FERdAZXW9QyfhdKveveX-95">
          <mxGeometry relative="1" as="geometry" />
        </mxCell>
        <mxCell id="FERdAZXW9QyfhdKveveX-78" value="&lt;div style=&quot;font-size: 15px;&quot;&gt;FALLBACK&lt;/div&gt;center_robot" style="rounded=0;whiteSpace=wrap;html=1;fontSize=15;container=0;fillColor=#e1d5e7;strokeColor=#9673a6;" vertex="1" parent="1">
          <mxGeometry x="1703.9664804469273" y="1233.3333333333333" width="126.81564245810056" height="66.66666666666666" as="geometry" />
        </mxCell>
        <mxCell id="FERdAZXW9QyfhdKveveX-79" style="edgeStyle=orthogonalEdgeStyle;rounded=0;orthogonalLoop=1;jettySize=auto;html=1;exitX=0.5;exitY=1;exitDx=0;exitDy=0;entryX=0.5;entryY=0;entryDx=0;entryDy=0;fontSize=15;" edge="1" parent="1" source="FERdAZXW9QyfhdKveveX-81" target="FERdAZXW9QyfhdKveveX-83">
          <mxGeometry relative="1" as="geometry" />
        </mxCell>
        <mxCell id="FERdAZXW9QyfhdKveveX-80" style="edgeStyle=orthogonalEdgeStyle;rounded=0;orthogonalLoop=1;jettySize=auto;html=1;exitX=0.5;exitY=1;exitDx=0;exitDy=0;entryX=0.5;entryY=0;entryDx=0;entryDy=0;fontSize=15;" edge="1" parent="1" source="FERdAZXW9QyfhdKveveX-81" target="FERdAZXW9QyfhdKveveX-82">
          <mxGeometry relative="1" as="geometry" />
        </mxCell>
        <mxCell id="FERdAZXW9QyfhdKveveX-81" value="&lt;div style=&quot;font-size: 15px;&quot;&gt;SEQUENCE&lt;/div&gt;&lt;div style=&quot;font-size: 15px;&quot;&gt;approach_ball&lt;br style=&quot;font-size: 15px;&quot;&gt;&lt;/div&gt;" style="rounded=0;whiteSpace=wrap;html=1;fontSize=15;container=0;fillColor=#cce5ff;strokeColor=#36393d;" vertex="1" parent="1">
          <mxGeometry x="1298.1564245810055" y="1366.6666666666665" width="126.81564245810056" height="66.66666666666666" as="geometry" />
        </mxCell>
        <mxCell id="FERdAZXW9QyfhdKveveX-82" value="&lt;div style=&quot;font-size: 15px;&quot;&gt;CONDITION&lt;/div&gt;&lt;div style=&quot;font-size: 15px;&quot;&gt;ObjectAtCenter&lt;br style=&quot;font-size: 15px;&quot;&gt;&lt;/div&gt;" style="rounded=0;whiteSpace=wrap;html=1;fontSize=15;container=0;fillColor=#fff2cc;strokeColor=#d6b656;" vertex="1" parent="1">
          <mxGeometry x="1222.067039106145" y="1499.9999999999998" width="126.81564245810056" height="66.66666666666666" as="geometry" />
        </mxCell>
        <mxCell id="FERdAZXW9QyfhdKveveX-83" value="&lt;div style=&quot;font-size: 15px;&quot;&gt;ACTION&lt;/div&gt;&lt;div style=&quot;font-size: 15px;&quot;&gt;MoveForward&lt;br style=&quot;font-size: 15px;&quot;&gt;&lt;/div&gt;" style="rounded=0;whiteSpace=wrap;html=1;fontSize=15;container=0;fillColor=#d5e8d4;strokeColor=#82b366;" vertex="1" parent="1">
          <mxGeometry x="1374.2458100558658" y="1499.9999999999998" width="126.81564245810056" height="66.66666666666666" as="geometry" />
        </mxCell>
        <mxCell id="FERdAZXW9QyfhdKveveX-84" style="edgeStyle=orthogonalEdgeStyle;rounded=0;orthogonalLoop=1;jettySize=auto;html=1;exitX=0.5;exitY=1;exitDx=0;exitDy=0;entryX=0.5;entryY=0;entryDx=0;entryDy=0;fontSize=15;" edge="1" parent="1" source="FERdAZXW9QyfhdKveveX-86" target="FERdAZXW9QyfhdKveveX-88">
          <mxGeometry relative="1" as="geometry" />
        </mxCell>
        <mxCell id="FERdAZXW9QyfhdKveveX-85" style="edgeStyle=orthogonalEdgeStyle;rounded=0;orthogonalLoop=1;jettySize=auto;html=1;exitX=0.5;exitY=1;exitDx=0;exitDy=0;entryX=0.5;entryY=0;entryDx=0;entryDy=0;fontSize=15;" edge="1" parent="1" source="FERdAZXW9QyfhdKveveX-86" target="FERdAZXW9QyfhdKveveX-87">
          <mxGeometry relative="1" as="geometry" />
        </mxCell>
        <mxCell id="FERdAZXW9QyfhdKveveX-86" value="&lt;div style=&quot;font-size: 15px;&quot;&gt;SEQUENCE&lt;/div&gt;rotate_right" style="rounded=0;whiteSpace=wrap;html=1;fontSize=15;container=0;fillColor=#cce5ff;strokeColor=#36393d;" vertex="1" parent="1">
          <mxGeometry x="1602.513966480447" y="1366.6666666666665" width="126.81564245810056" height="66.66666666666666" as="geometry" />
        </mxCell>
        <mxCell id="FERdAZXW9QyfhdKveveX-87" value="&lt;div style=&quot;font-size: 15px;&quot;&gt;CONDITION&lt;/div&gt;&lt;div style=&quot;font-size: 15px;&quot;&gt;ObjectOnRight&lt;/div&gt;" style="rounded=0;whiteSpace=wrap;html=1;fontSize=15;container=0;fillColor=#fff2cc;strokeColor=#d6b656;" vertex="1" parent="1">
          <mxGeometry x="1526.4245810055866" y="1499.9999999999998" width="126.81564245810056" height="66.66666666666666" as="geometry" />
        </mxCell>
        <mxCell id="FERdAZXW9QyfhdKveveX-88" value="&lt;div style=&quot;font-size: 15px;&quot;&gt;ACTION&lt;/div&gt;&lt;div style=&quot;font-size: 15px;&quot;&gt;MoveForwardRight&lt;br style=&quot;font-size: 15px;&quot;&gt;&lt;/div&gt;" style="rounded=0;whiteSpace=wrap;html=1;fontSize=15;container=0;fillColor=#d5e8d4;strokeColor=#82b366;" vertex="1" parent="1">
          <mxGeometry x="1678.603351955307" y="1499.9999999999998" width="126.81564245810056" height="66.66666666666666" as="geometry" />
        </mxCell>
        <mxCell id="FERdAZXW9QyfhdKveveX-89" style="edgeStyle=orthogonalEdgeStyle;rounded=0;orthogonalLoop=1;jettySize=auto;html=1;exitX=0.5;exitY=1;exitDx=0;exitDy=0;entryX=0.5;entryY=0;entryDx=0;entryDy=0;fontSize=15;" edge="1" parent="1" source="FERdAZXW9QyfhdKveveX-91" target="FERdAZXW9QyfhdKveveX-93">
          <mxGeometry relative="1" as="geometry" />
        </mxCell>
        <mxCell id="FERdAZXW9QyfhdKveveX-90" style="edgeStyle=orthogonalEdgeStyle;rounded=0;orthogonalLoop=1;jettySize=auto;html=1;exitX=0.5;exitY=1;exitDx=0;exitDy=0;entryX=0.5;entryY=0;entryDx=0;entryDy=0;fontSize=15;" edge="1" parent="1" source="FERdAZXW9QyfhdKveveX-91" target="FERdAZXW9QyfhdKveveX-92">
          <mxGeometry relative="1" as="geometry" />
        </mxCell>
        <mxCell id="FERdAZXW9QyfhdKveveX-91" value="&lt;div style=&quot;font-size: 15px;&quot;&gt;SEQUENCE&lt;/div&gt;rotate_left" style="rounded=0;whiteSpace=wrap;html=1;fontSize=15;container=0;fillColor=#cce5ff;strokeColor=#36393d;" vertex="1" parent="1">
          <mxGeometry x="1906.8715083798882" y="1366.6666666666665" width="126.81564245810056" height="66.66666666666666" as="geometry" />
        </mxCell>
        <mxCell id="FERdAZXW9QyfhdKveveX-92" value="&lt;div style=&quot;font-size: 15px;&quot;&gt;CONDITION&lt;/div&gt;&lt;div style=&quot;font-size: 15px;&quot;&gt;ObjectOnLeft&lt;/div&gt;" style="rounded=0;whiteSpace=wrap;html=1;fontSize=15;container=0;fillColor=#fff2cc;strokeColor=#d6b656;" vertex="1" parent="1">
          <mxGeometry x="1830.7821229050278" y="1499.9999999999998" width="126.81564245810056" height="66.66666666666666" as="geometry" />
        </mxCell>
        <mxCell id="FERdAZXW9QyfhdKveveX-93" value="&lt;div style=&quot;font-size: 15px;&quot;&gt;ACTION&lt;/div&gt;&lt;div style=&quot;font-size: 15px;&quot;&gt;MoveForwardLeft&lt;/div&gt;" style="rounded=0;whiteSpace=wrap;html=1;fontSize=15;container=0;fillColor=#d5e8d4;strokeColor=#82b366;" vertex="1" parent="1">
          <mxGeometry x="1982.9608938547485" y="1499.9999999999998" width="126.81564245810056" height="66.66666666666666" as="geometry" />
        </mxCell>
        <mxCell id="FERdAZXW9QyfhdKveveX-94" style="edgeStyle=orthogonalEdgeStyle;rounded=0;orthogonalLoop=1;jettySize=auto;html=1;exitX=0.5;exitY=1;exitDx=0;exitDy=0;entryX=0.5;entryY=0;entryDx=0;entryDy=0;fontSize=15;" edge="1" parent="1" source="FERdAZXW9QyfhdKveveX-95" target="FERdAZXW9QyfhdKveveX-96">
          <mxGeometry relative="1" as="geometry" />
        </mxCell>
        <mxCell id="FERdAZXW9QyfhdKveveX-95" value="&lt;div style=&quot;font-size: 15px;&quot;&gt;FORCE&lt;/div&gt;&lt;div style=&quot;font-size: 15px;&quot;&gt;FAILURE&lt;br style=&quot;font-size: 15px;&quot;&gt;&lt;/div&gt;" style="rhombus;whiteSpace=wrap;html=1;fontSize=15;container=0;fillColor=#ffcccc;strokeColor=#36393d;" vertex="1" parent="1">
          <mxGeometry x="2135.1396648044692" y="1366.6666666666665" width="152.17877094972067" height="133.33333333333331" as="geometry" />
        </mxCell>
        <mxCell id="FERdAZXW9QyfhdKveveX-96" value="&lt;div style=&quot;font-size: 15px;&quot;&gt;ACTION&lt;/div&gt;&lt;div style=&quot;font-size: 15px;&quot;&gt;RotateRight&lt;br style=&quot;font-size: 15px;&quot;&gt;&lt;/div&gt;" style="rounded=0;whiteSpace=wrap;html=1;fontSize=15;container=0;fillColor=#d5e8d4;strokeColor=#82b366;" vertex="1" parent="1">
          <mxGeometry x="2147.8212290502793" y="1526.6666666666665" width="126.81564245810056" height="66.66666666666666" as="geometry" />
        </mxCell>
      </root>
    </mxGraphModel>
  </diagram>
</mxfile>
